<svg id="loader" class="mt-5 mb-3 d-none" version="1.1" id="L4" width="100px" xmlns="http://www.w3.org/2000/svg" xmlns:xlink="http://www.w3.org/1999/xlink" x="0px" y="0px"
  viewBox="0 0 74 60" enable-background="new 0 0 0 0" xml:space="preserve">
  <defs>
    <linearGradient id="grad_svg" x1="0%" y1="0%" x2="100%" y2="0%" gradientUnits="userSpaceOnUse">
      <stop offset="0%" stop-color="var(--color-stop)" />
      <stop offset="100%" stop-color="var(--color-start)" />
    </linearGradient>
  </defs>
  <rect x="0" y="25" rx="2" ry="0" width="4" height="10">
    <animate
      attributeName="opacity"
      dur="2s"
      values="0;1;0"
      repeatCount="indefinite"
      begin="0"/>
  </rect>
  <rect x="7" y="20" rx="2" ry="0" width="4" height="20">
    <animate
      attributeName="opacity"
      dur="2s"
      values="0;1;0"
      repeatCount="indefinite"
      begin="0"/>    
  </rect>
  <rect x="14" y="15" rx="2" ry="0" width="4" height="30">
    <animate
      attributeName="opacity"
      dur="2s"
      values="0;1;0"
      repeatCount="indefinite"
      begin="0.1s"/>    
  </rect>
  <rect x="21" y="13" rx="2" ry="0" width="4" height="34">
    <animate
      attributeName="opacity"
      dur="2s"
      values="0;1;0"
      repeatCount="indefinite"
      begin="0.2s"/>    
  </rect>
  <rect x="28" y="17" rx="2" ry="0" width="4" height="26">
    <animate
      attributeName="opacity"
      dur="2s"
      values="0;1;0"
      repeatCount="indefinite"
      begin="0.3s"/>    
  </rect>
  <rect x="35" y="20" rx="2" ry="0" width="4" height="20">
    <animate
      attributeName="opacity"
      dur="2s"
      values="0;1;0"
      repeatCount="indefinite"
      begin="0.4s"/>    
  </rect>
  <rect x="42" y="17" rx="2" ry="0" width="4" height="26">
    <animate
      attributeName="opacity"
      dur="2s"
      values="0;1;0"
      repeatCount="indefinite"
      begin="0.5s"/>    
  </rect>
  <rect x="49" y="13" rx="2" ry="0" width="4" height="34">
    <animate
      attributeName="opacity"
      dur="2s"
      values="0;1;0"
      repeatCount="indefinite"
      begin="0.6s"/>    
  </rect>
  <rect x="56" y="15" rx="2" ry="0" width="4" height="30">
    <animate
      attributeName="opacity"
      dur="2s"
      values="0;1;0"
      repeatCount="indefinite"
      begin="0.7s"/>    
  </rect>
  <rect x="63" y="20" rx="2" ry="0" width="4" height="20">
    <animate
      attributeName="opacity"
      dur="2s"
      values="0;1;0"
      repeatCount="indefinite"
      begin="0.8s"/>    
  </rect>
  <rect x="70" y="25" rx="2" ry="0" width="4" height="10">
    <animate
      attributeName="opacity"
      dur="2s"
      values="0;1;0"
      repeatCount="indefinite"
      begin="0.9s"/>    
  </rect>
</svg>